<svg width="113" height="72" viewBox="0 0 113 72" fill="none" xmlns="http://www.w3.org/2000/svg">
<path d="M105.882 54.9834C106.19 54.6141 106.783 54.7172 106.948 55.1689L112.688 70.8203C112.853 71.272 112.467 71.7338 111.993 71.6514L95.5693 68.7959C95.0954 68.7135 94.8882 68.1486 95.1963 67.7793L105.882 54.9834ZM33.8564 1.5625C34.963 -0.354119 37.7293 -0.354021 38.8359 1.5625L72.1787 59.3125C73.2851 61.2291 71.9016 63.625 69.6885 63.625H3.00488C0.791707 63.625 -0.591938 61.2292 0.514648 59.3125L33.8564 1.5625ZM73.3613 27.2207C73.0866 26.1985 74.0213 25.262 75.0439 25.5352L107.257 34.1396C108.279 34.4129 108.622 35.6905 107.875 36.4395L84.3164 60.0342C83.5686 60.783 82.2905 60.4419 82.0156 59.4199L73.3613 27.2207Z" fill="url(#paint0_linear_65_6813)" stroke="#FBFBFB" stroke-width="0.249999"/>
<defs>
<linearGradient id="paint0_linear_65_6813" x1="106.619" y1="53.906" x2="102.807" y2="75.8269" gradientUnits="userSpaceOnUse">
<stop stop-color="#E68540" stop-opacity="0.8"/>
<stop offset="1" stop-color="#E68540" stop-opacity="0.6"/>
</linearGradient>
</defs>
</svg>
